# Blender v2.79 (sub 0) OBJ File: 'teleport-base.blend'
# www.blender.org
mtllib tele-test.mtl
o Plane
v -1.000000 0.000000 1.000000
v -1.000000 0.226138 1.000000
v -1.000000 0.000000 -1.000000
v 1.000000 0.000000 -1.000000
v -1.000000 0.226138 -1.000000
v 1.000000 0.226138 -1.000000
vn 0.0000 1.0000 0.0000
vn 0.0000 -1.0000 0.0000
vn 0.0000 0.0000 1.0000
vn -0.7071 0.0000 -0.7071
vn 1.0000 0.0000 0.0000
usemtl None
s off
f 3//1 1//1 4//1
f 5//2 6//2 2//2
f 3//3 4//3 6//3 5//3
f 4//4 1//4 2//4 6//4
f 1//5 3//5 5//5 2//5
