# Rhino

g notifications
v 0.1000000014901161 1.598132729530334 3.182117462158203
v 0.09600000083446503 1.598132729530334 3.182117462158203
v 0.1000000014901161 0 3.182117462158203
v 0.09600000083446503 0 3.182117462158203
v 0.1000000014901161 0 3.182117462158203
v 0.09600000083446503 0 3.182117462158203
v 0.1000000014901161 0 4.096601963043213
v 0.09600000083446503 0 4.096601963043213
v 0.1000000014901161 0 4.096601963043213
v 0.09600000083446503 0 4.096601963043213
v 0.1000000014901161 1.723843455314636 4.096601963043213
v 0.09600000083446503 1.723843455314636 4.096601963043213
v 0.1000000014901161 1.723843455314636 4.096601963043213
v 0.09600000083446503 1.723843455314636 4.096601963043213
v 0.1000000014901161 1.723843455314636 3.355556726455688
v 0.09600000083446503 1.723843455314636 3.355556726455688
v 0.1000000014901161 1.723843455314636 3.355556726455688
v 0.09600000083446503 1.723843455314636 3.355556726455688
v 0.1000000014901161 1.598132729530334 3.182117462158203
v 0.09600000083446503 1.598132729530334 3.182117462158203
v 0.1000000014901161 1.723843455314636 4.096601963043213
v 0.1000000014901161 0 4.096601963043213
v 0.1000000014901161 0 3.182117462158203
v 0.1000000014901161 1.598132729530334 3.182117462158203
v 0.1000000014901161 1.723843455314636 3.355556726455688
v 0.09600000083446503 1.723843455314636 4.096601963043213
v 0.09600000083446503 0 4.096601963043213
v 0.09600000083446503 0 3.182117462158203
v 0.09600000083446503 1.598132729530334 3.182117462158203
v 0.09600000083446503 1.723843455314636 3.355556726455688
vt 0.006532499101012945 0.002177499700337648
vt 0.006532499101012945 0.004354999400675297
vt 0.8765158653259277 0.002177499700337648
vt 0.8765158653259277 0.004354999400675297
vt 0.006532499101012945 0
vt 0.006532499101012945 0.002177499700337648
vt 0.5043550133705139 0
vt 0.5043550133705139 0.002177499700337648
vt 0.006532499101012945 0
vt 0.004354999400675297 0
vt 0.006532499101012945 0.9384171366691589
vt 0.004354999400675297 0.9384171366691589
vt 0.004354999400675297 0
vt 0.002177499700337648 0
vt 0.004354999400675297 0.4034065902233124
vt 0.002177499700337648 0.4034065902233124
vt 0.002177499700337648 0
vt 0 0
vt 0.002177499700337648 0.1166084781289101
vt 0 0.1166084781289101
vt 0.9434847831726074 0.5021774768829346
vt 0.006532499101012945 0.5021774768829346
vt 0.006532499101012945 0.99853515625
vt 0.8751578330993652 0.99853515625
vt 0.9434847831726074 0.9043970704078674
vt 0.9434847831726074 0.004354999400675297
vt 0.006532499101012945 0.004354999400675297
vt 0.006532499101012945 0.5007126331329346
vt 0.8751578330993652 0.5007126331329346
vt 0.9434847831726074 0.4065745770931244
vn 0 0 -1
vn 0 0 -1
vn 0 0 -1
vn 0 0 -1
vn 0 -1 0
vn 0 -1 0
vn 0 -1 0
vn 0 -1 0
vn 0 0 1
vn 0 0 1
vn 0 0 1
vn 0 0 1
vn 0 1 -2.731848014506609e-16
vn 0 1 -2.731848014506609e-16
vn 0 1 -2.731848014506609e-16
vn 0 1 -2.731848014506609e-16
vn 0 0.8096829652786255 -0.5868675112724304
vn 0 0.8096829652786255 -0.5868675112724304
vn 0 0.8096829652786255 -0.5868675112724304
vn 0 0.8096829652786255 -0.5868675112724304
vn 1 0 0
vn 1 0 0
vn 1 0 0
vn 1 0 0
vn 1 0 0
vn -1 0 0
vn -1 0 0
vn -1 0 0
vn -1 0 0
vn -1 0 0
f 2/2/2 1/1/1 3/3/3 4/4/4
f 6/6/6 5/5/5 7/7/7 8/8/8
f 10/10/10 9/9/9 11/11/11 12/12/12
f 14/14/14 13/13/13 15/15/15 16/16/16
f 18/18/18 17/17/17 19/19/19 20/20/20
f 21/21/21 22/22/22 23/23/23 25/25/25
f 23/23/23 24/24/24 25/25/25
f 26/26/26 30/30/30 28/28/28 27/27/27
f 28/28/28 30/30/30 29/29/29
g news
v 0.1500000059604645 1.598132729530334 3.182117462158203
v 0.1459999978542328 1.598132729530334 3.182117462158203
v 0.1500000059604645 1.723843455314636 3.008678436279297
v 0.1459999978542328 1.723843455314636 3.008678436279297
v 0.1500000059604645 1.723843455314636 3.008678436279297
v 0.1459999978542328 1.723843455314636 3.008678436279297
v 0.1500000059604645 1.723843455314636 2.267632961273193
v 0.1459999978542328 1.723843455314636 2.267632961273193
v 0.1500000059604645 1.723843455314636 2.267632961273193
v 0.1459999978542328 1.723843455314636 2.267632961273193
v 0.1500000059604645 0 2.267632961273193
v 0.1459999978542328 0 2.267632961273193
v 0.1500000059604645 0 2.267632961273193
v 0.1459999978542328 0 2.267632961273193
v 0.1500000059604645 0 3.182117462158203
v 0.1459999978542328 0 3.182117462158203
v 0.1500000059604645 0 3.182117462158203
v 0.1459999978542328 0 3.182117462158203
v 0.1500000059604645 1.598132729530334 3.182117462158203
v 0.1459999978542328 1.598132729530334 3.182117462158203
v 0.1500000059604645 0 3.182117462158203
v 0.1500000059604645 1.723843455314636 2.267632961273193
v 0.1500000059604645 0 2.267632961273193
v 0.1500000059604645 1.598132729530334 3.182117462158203
v 0.1500000059604645 1.723843455314636 3.008678436279297
v 0.1459999978542328 0 3.182117462158203
v 0.1459999978542328 1.723843455314636 2.267632961273193
v 0.1459999978542328 0 2.267632961273193
v 0.1459999978542328 1.598132729530334 3.182117462158203
v 0.1459999978542328 1.723843455314636 3.008678436279297
vt 0.002177499700337648 0
vt 0 0
vt 0.002177499700337648 0.1166084781289101
vt 0 0.1166084781289101
vt 0.004354999400675297 0
vt 0.002177499700337648 0
vt 0.004354999400675297 0.4034065902233124
vt 0.002177499700337648 0.4034065902233124
vt 0.006532499101012945 0
vt 0.004354999400675297 0
vt 0.006532499101012945 0.9384171366691589
vt 0.004354999400675297 0.9384171366691589
vt 0.006532499101012945 0
vt 0.006532499101012945 0.002177499700337648
vt 0.5043550133705139 0
vt 0.5043550133705139 0.002177499700337648
vt 0.006532499101012945 0.002177499700337648
vt 0.006532499101012945 0.004354999400675297
vt 0.8765158653259277 0.002177499700337648
vt 0.8765158653259277 0.004354999400675297
vt 0.006532499101012945 0.5021774768829346
vt 0.9434847831726074 0.99853515625
vt 0.006532499101012945 0.99853515625
vt 0.8751578330993652 0.5021774768829346
vt 0.9434847831726074 0.5963155627250671
vt 0.006532499101012945 0.004354999400675297
vt 0.9434847831726074 0.5007126331329346
vt 0.006532499101012945 0.5007126331329346
vt 0.8751578330993652 0.004354999400675297
vt 0.9434847831726074 0.09849308431148529
vn 0 0.8096829652786255 0.5868675112724304
vn 0 0.8096829652786255 0.5868675112724304
vn 0 0.8096829652786255 0.5868675112724304
vn 0 0.8096829652786255 0.5868675112724304
vn 0 1 2.731848014506609e-16
vn 0 1 2.731848014506609e-16
vn 0 1 2.731848014506609e-16
vn 0 1 2.731848014506609e-16
vn 0 0 -1
vn 0 0 -1
vn 0 0 -1
vn 0 0 -1
vn 0 -1 0
vn 0 -1 0
vn 0 -1 0
vn 0 -1 0
vn 0 0 1
vn 0 0 1
vn 0 0 1
vn 0 0 1
vn 1 0 0
vn 1 0 0
vn 1 0 0
vn 1 0 0
vn 1 0 0
vn -1 0 0
vn -1 0 0
vn -1 0 0
vn -1 0 0
vn -1 0 0
f 32/32/32 31/31/31 33/33/33 34/34/34
f 36/36/36 35/35/35 37/37/37 38/38/38
f 40/40/40 39/39/39 41/41/41 42/42/42
f 44/44/44 43/43/43 45/45/45 46/46/46
f 48/48/48 47/47/47 49/49/49 50/50/50
f 55/55/55 54/54/54 51/51/51
f 55/55/55 51/51/51 53/53/53 52/52/52
f 60/60/60 56/56/56 59/59/59
f 60/60/60 57/57/57 58/58/58 56/56/56
